<svg xmlns="http://www.w3.org/2000/svg" viewBox="0 0 100 100">
  <!-- Subtle background glow -->
  <circle cx="50" cy="50" r="46" fill="#fff0f5" opacity="0.35"/>
  
  <!-- Main petals with soft radial gradient -->
  <defs>
    <radialGradient id="p1" cx="50%" cy="38%" r="90%">
      <stop offset="0%" stop-color="#ffccdd"/>
      <stop offset="100%" stop-color="#ff99bb"/>
    </radialGradient>
    <radialGradient id="p2" cx="50%" cy="45%" r="85%">
      <stop offset="0%" stop-color="#ffe6f2"/>
      <stop offset="100%" stop-color="#ffccdd"/>
    </radialGradient>
  </defs>

  <path d="M50 18 C72 8,92 28,88 50 C92 72,72 92,50 82 C28 92,8 72,12 50 C8 28,28 8,50 18 Z"
        fill="url(#p1)" stroke="#d81b60" stroke-width="1.4"/>
  
  <path d="M50 28 C65 20,80 35,78 50 C80 65,65 80,50 72 C35 80,20 65,22 50 C20 35,35 20,50 28 Z"
        fill="url(#p2)" stroke="#c2185b" stroke-width="1"/>

  <!-- Center -->
  <circle cx="50" cy="50" r="14" fill="#fff176"/>
  <circle cx="50" cy="50" r="9" fill="#ffb300"/>
  
  <!-- Highlights -->
  <circle cx="46" cy="46" r="2.4" fill="#fffde7"/>
  <circle cx="54" cy="46" r="2" fill="#fffde7"/>
</svg>